<svg width="40" height="40" viewBox="0 0 40 40" fill="none" xmlns="http://www.w3.org/2000/svg">
<path opacity="0.2" d="M26.25 22.5C26.25 23.7361 25.8834 24.9445 25.1967 25.9723C24.5099 27.0001 23.5338 27.8012 22.3918 28.2742C21.2497 28.7473 19.9931 28.8711 18.7807 28.6299C17.5683 28.3888 16.4547 27.7935 15.5806 26.9194C14.7065 26.0453 14.1113 24.9317 13.8701 23.7193C13.6289 22.5069 13.7527 21.2503 14.2258 20.1082C14.6988 18.9662 15.4999 17.9901 16.5277 17.3033C17.5555 16.6166 18.7639 16.25 20 16.25C21.6576 16.25 23.2473 16.9085 24.4194 18.0806C25.5915 19.2527 26.25 20.8424 26.25 22.5ZM10 8.75C9.0111 8.75 8.0444 9.04324 7.22215 9.59265C6.39991 10.1421 5.75904 10.923 5.3806 11.8366C5.00217 12.7502 4.90315 13.7555 5.09608 14.7255C5.289 15.6954 5.76521 16.5863 6.46447 17.2855C7.16373 17.9848 8.05465 18.461 9.02455 18.6539C9.99446 18.8469 10.9998 18.7478 11.9134 18.3694C12.8271 17.991 13.6079 17.3501 14.1574 16.5279C14.7068 15.7056 15 14.7389 15 13.75C15 12.4239 14.4732 11.1521 13.5355 10.2145C12.5979 9.27678 11.3261 8.75 10 8.75ZM30 8.75C29.0111 8.75 28.0444 9.04324 27.2222 9.59265C26.3999 10.1421 25.759 10.923 25.3806 11.8366C25.0022 12.7502 24.9031 13.7555 25.0961 14.7255C25.289 15.6954 25.7652 16.5863 26.4645 17.2855C27.1637 17.9848 28.0546 18.461 29.0246 18.6539C29.9945 18.8469 30.9998 18.7478 31.9134 18.3694C32.827 17.991 33.6079 17.3501 34.1574 16.5279C34.7068 15.7056 35 14.7389 35 13.75C35 12.4239 34.4732 11.1521 33.5355 10.2145C32.5979 9.27678 31.3261 8.75 30 8.75Z" fill="#285FE2"/>
<path d="M38.2505 23.5001C38.1192 23.5986 37.9697 23.6703 37.8107 23.711C37.6517 23.7517 37.4862 23.7608 37.3237 23.7376C37.1612 23.7143 37.0049 23.6593 36.8636 23.5757C36.7224 23.4921 36.599 23.3814 36.5005 23.2501C35.7471 22.2374 34.7664 21.4157 33.6374 20.8512C32.5084 20.2867 31.2627 19.9952 30.0005 20.0001C29.669 20.0001 29.351 19.8684 29.1166 19.634C28.8822 19.3996 28.7505 19.0816 28.7505 18.7501C28.7505 18.4186 28.8822 18.1007 29.1166 17.8662C29.351 17.6318 29.669 17.5001 30.0005 17.5001C30.7018 17.5001 31.3891 17.3033 31.9843 16.9322C32.5794 16.5611 33.0586 16.0306 33.3673 15.4008C33.676 14.771 33.802 14.0673 33.7308 13.3696C33.6596 12.6718 33.3942 12.008 32.9647 11.4536C32.5352 10.8991 31.9588 10.4762 31.3009 10.233C30.6431 9.98967 29.9303 9.93573 29.2433 10.0773C28.5564 10.2188 27.9229 10.5502 27.4149 11.0337C26.9068 11.5172 26.5446 12.1335 26.3692 12.8126C26.3282 12.9716 26.2562 13.121 26.1575 13.2522C26.0587 13.3834 25.935 13.4939 25.7936 13.5773C25.6521 13.6608 25.4956 13.7155 25.333 13.7385C25.1704 13.7614 25.0048 13.7521 24.8458 13.7111C24.6868 13.67 24.5374 13.5981 24.4062 13.4993C24.275 13.4005 24.1645 13.2769 24.0811 13.1354C23.9976 12.9939 23.9429 12.8374 23.9199 12.6748C23.897 12.5122 23.9063 12.3466 23.9473 12.1876C24.1907 11.2459 24.6505 10.374 25.2901 9.64129C25.9298 8.90856 26.7316 8.33523 27.6318 7.96691C28.532 7.5986 29.5057 7.44546 30.4755 7.5197C31.4453 7.59393 32.3844 7.89348 33.2181 8.39451C34.0518 8.89554 34.757 9.58423 35.2776 10.4058C35.7983 11.2273 36.12 12.159 36.2172 13.1268C36.3145 14.0946 36.1845 15.0717 35.8376 15.9803C35.4907 16.889 34.9366 17.7042 34.2192 18.3611C35.9189 19.097 37.3965 20.2648 38.5052 21.7486C38.6036 21.8802 38.6752 22.03 38.7157 22.1894C38.7562 22.3487 38.7649 22.5145 38.7412 22.6772C38.7176 22.8399 38.662 22.9963 38.5778 23.1375C38.4936 23.2787 38.3824 23.402 38.2505 23.5001ZM29.8317 33.1251C29.919 33.2674 29.9769 33.4257 30.002 33.5908C30.027 33.7558 30.0188 33.9242 29.9778 34.086C29.9367 34.2478 29.8637 34.3997 29.763 34.5328C29.6623 34.6659 29.5359 34.7775 29.3914 34.861C29.2468 34.9445 29.087 34.9982 28.9214 35.0189C28.7558 35.0397 28.5877 35.027 28.427 34.9817C28.2663 34.9364 28.1164 34.8594 27.986 34.7552C27.8555 34.6511 27.7473 34.5218 27.6677 34.3751C26.8801 33.0421 25.7587 31.9375 24.4141 31.1701C23.0694 30.4027 21.5479 29.9992 19.9997 29.9992C18.4515 29.9992 16.93 30.4027 15.5853 31.1701C14.2407 31.9375 13.1193 33.0421 12.3317 34.3751C12.2536 34.5245 12.146 34.6565 12.0155 34.7633C11.885 34.87 11.7343 34.9492 11.5724 34.9962C11.4105 35.0432 11.2407 35.0569 11.0734 35.0366C10.906 35.0163 10.7445 34.9623 10.5986 34.8779C10.4526 34.7936 10.3252 34.6805 10.2241 34.5457C10.1229 34.4108 10.0501 34.2568 10.01 34.0931C9.9699 33.9294 9.96333 33.7592 9.99069 33.5928C10.0181 33.4265 10.0788 33.2674 10.1692 33.1251C11.3811 31.0429 13.2289 29.4043 15.4411 28.4501C14.1963 27.497 13.2815 26.1779 12.8252 24.678C12.3689 23.1781 12.3941 21.5729 12.8972 20.0881C13.4004 18.6033 14.3562 17.3134 15.6303 16.3999C16.9044 15.4864 18.4327 14.9951 20.0005 14.9951C21.5682 14.9951 23.0966 15.4864 24.3707 16.3999C25.6448 17.3134 26.6006 18.6033 27.1037 20.0881C27.6069 21.5729 27.6321 23.1781 27.1758 24.678C26.7195 26.1779 25.8046 27.497 24.5598 28.4501C26.772 29.4043 28.6199 31.0429 29.8317 33.1251ZM20.0005 27.5001C20.9894 27.5001 21.9561 27.2069 22.7783 26.6575C23.6006 26.1081 24.2414 25.3272 24.6199 24.4135C24.9983 23.4999 25.0973 22.4946 24.9044 21.5247C24.7115 20.5548 24.2353 19.6638 23.536 18.9646C22.8367 18.2653 21.9458 17.7891 20.9759 17.5962C20.006 17.4033 19.0007 17.5023 18.0871 17.8807C17.1734 18.2592 16.3925 18.9 15.8431 19.7223C15.2937 20.5445 15.0005 21.5112 15.0005 22.5001C15.0005 23.8262 15.5273 25.098 16.4649 26.0357C17.4026 26.9733 18.6744 27.5001 20.0005 27.5001ZM11.2505 18.7501C11.2505 18.4186 11.1188 18.1007 10.8844 17.8662C10.6499 17.6318 10.332 17.5001 10.0005 17.5001C9.29911 17.5001 8.61182 17.3033 8.01667 16.9322C7.42153 16.5611 6.94238 16.0306 6.63365 15.4008C6.32492 14.771 6.19899 14.0673 6.27016 13.3696C6.34133 12.6718 6.60675 12.008 7.03627 11.4536C7.46579 10.8991 8.04219 10.4762 8.7 10.233C9.35782 9.98967 10.0707 9.93573 10.7576 10.0773C11.4445 10.2188 12.078 10.5502 12.5861 11.0337C13.0941 11.5172 13.4564 12.1335 13.6317 12.8126C13.7146 13.1338 13.9217 13.4089 14.2074 13.5773C14.4931 13.7458 14.834 13.7939 15.1552 13.7111C15.4763 13.6282 15.7514 13.4211 15.9199 13.1354C16.0884 12.8497 16.1365 12.5088 16.0536 12.1876C15.8102 11.2459 15.3504 10.374 14.7108 9.64129C14.0712 8.90856 13.2694 8.33523 12.3692 7.96691C11.4689 7.5986 10.4952 7.44546 9.52541 7.5197C8.55561 7.59393 7.61652 7.89348 6.78286 8.39451C5.9492 8.89554 5.24398 9.58423 4.72332 10.4058C4.20266 11.2273 3.88092 12.159 3.78371 13.1268C3.68649 14.0946 3.81649 15.0717 4.16335 15.9803C4.51022 16.889 5.06437 17.7042 5.78172 18.3611C4.08373 19.0977 2.60784 20.2655 1.50047 21.7486C1.30135 22.0138 1.21575 22.3472 1.26248 22.6756C1.30922 23.0039 1.48448 23.3002 1.74969 23.4993C2.01491 23.6985 2.34836 23.7841 2.6767 23.7373C3.00503 23.6906 3.30135 23.5153 3.50047 23.2501C4.25389 22.2374 5.23456 21.4157 6.36353 20.8512C7.49251 20.2867 8.73825 19.9952 10.0005 20.0001C10.332 20.0001 10.6499 19.8684 10.8844 19.634C11.1188 19.3996 11.2505 19.0816 11.2505 18.7501Z" fill="#242839"/>
</svg>
