<svg width="40" height="40" viewBox="0 0 40 40" fill="none" xmlns="http://www.w3.org/2000/svg">
<path opacity="0.2" d="M27.5 21.25H12.5C12.321 21.25 12.144 21.2115 11.9811 21.1372C11.8181 21.0628 11.6731 20.9544 11.5558 20.8191C11.4384 20.6838 11.3515 20.5249 11.3009 20.3531C11.2503 20.1814 11.2372 20.0007 11.2625 19.8234L13.4063 4.82344C13.4488 4.52552 13.5973 4.25293 13.8247 4.05574C14.052 3.85855 14.3428 3.74999 14.6438 3.75H25.3563C25.6572 3.74999 25.9481 3.85855 26.1754 4.05574C26.4027 4.25293 26.5513 4.52552 26.5938 4.82344L28.7375 19.8234C28.7628 20.0007 28.7497 20.1814 28.6991 20.3531C28.6486 20.5249 28.5616 20.6838 28.4443 20.8191C28.327 20.9544 28.1819 21.0628 28.019 21.1372C27.8561 21.2115 27.6791 21.25 27.5 21.25Z" fill="#285FE2"/>
<path d="M38.75 20C38.75 20.3315 38.6183 20.6495 38.3839 20.8839C38.1495 21.1183 37.8315 21.25 37.5 21.25H34.8953C34.5976 22.9966 33.6921 24.5817 32.3389 25.7253C30.9856 26.869 29.2718 27.4976 27.5 27.5H21.25V31.25H25C26.3261 31.25 27.5979 31.7768 28.5355 32.7145C29.4732 33.6521 30 34.9239 30 36.25C30 36.5815 29.8683 36.8995 29.6339 37.1339C29.3995 37.3683 29.0815 37.5 28.75 37.5C28.4185 37.5 28.1005 37.3683 27.8661 37.1339C27.6317 36.8995 27.5 36.5815 27.5 36.25C27.5 35.587 27.2366 34.9511 26.7678 34.4822C26.2989 34.0134 25.663 33.75 25 33.75H21.25V36.25C21.25 36.5815 21.1183 36.8995 20.8839 37.1339C20.6495 37.3683 20.3315 37.5 20 37.5C19.6685 37.5 19.3505 37.3683 19.1161 37.1339C18.8817 36.8995 18.75 36.5815 18.75 36.25V33.75H15C14.337 33.75 13.7011 34.0134 13.2322 34.4822C12.7634 34.9511 12.5 35.587 12.5 36.25C12.5 36.5815 12.3683 36.8995 12.1339 37.1339C11.8995 37.3683 11.5815 37.5 11.25 37.5C10.9185 37.5 10.6005 37.3683 10.3661 37.1339C10.1317 36.8995 10 36.5815 10 36.25C10 34.9239 10.5268 33.6521 11.4645 32.7145C12.4021 31.7768 13.6739 31.25 15 31.25H18.75V27.5H12.5C10.7282 27.4976 9.01435 26.869 7.66113 25.7253C6.30791 24.5817 5.40244 22.9966 5.10469 21.25H2.5C2.16848 21.25 1.85054 21.1183 1.61612 20.8839C1.3817 20.6495 1.25 20.3315 1.25 20C1.25 19.6685 1.3817 19.3505 1.61612 19.1161C1.85054 18.8817 2.16848 18.75 2.5 18.75H6.25C6.58152 18.75 6.89946 18.8817 7.13388 19.1161C7.3683 19.3505 7.5 19.6685 7.5 20C7.5 21.3261 8.02678 22.5979 8.96447 23.5355C9.90215 24.4732 11.1739 25 12.5 25H27.5C28.8261 25 30.0979 24.4732 31.0355 23.5355C31.9732 22.5979 32.5 21.3261 32.5 20C32.5 19.6685 32.6317 19.3505 32.8661 19.1161C33.1005 18.8817 33.4185 18.75 33.75 18.75H37.5C37.8315 18.75 38.1495 18.8817 38.3839 19.1161C38.6183 19.3505 38.75 19.6685 38.75 20ZM10.6109 21.6375C10.3764 21.367 10.2028 21.0493 10.1017 20.7059C10.0006 20.3624 9.97444 20.0013 10.025 19.6469L12.1687 4.64687C12.2562 4.05212 12.5541 3.50843 13.0082 3.11452C13.4623 2.72061 14.0426 2.50257 14.6438 2.5H25.3563C25.9574 2.50257 26.5377 2.72061 26.9918 3.11452C27.4459 3.50843 27.7438 4.05212 27.8312 4.64687L29.975 19.6469C30.0256 20.0014 29.9994 20.3627 29.8982 20.7063C29.797 21.0498 29.6232 21.3677 29.3885 21.6382C29.1539 21.9087 28.8638 22.1257 28.5379 22.2744C28.2121 22.4231 27.8581 22.5 27.5 22.5H12.5C12.1417 22.5 11.7876 22.423 11.4617 22.2742C11.1358 22.1254 10.8456 21.9082 10.6109 21.6375ZM12.5 20H27.5L25.3563 5H14.6422L12.5 20Z" fill="#242839"/>
</svg>
