<svg width="40" height="40" viewBox="0 0 40 40" fill="none" xmlns="http://www.w3.org/2000/svg">
<path opacity="0.2" d="M24.4527 23.5938L9.21834 34.7578C8.97774 34.9341 8.68202 35.0186 8.38458 34.996C8.08715 34.9733 7.80761 34.8451 7.59647 34.6344L5.36209 32.4C5.15266 32.1887 5.02549 31.9095 5.00344 31.6128C4.98139 31.3161 5.0659 31.0212 5.24178 30.7812L16.4058 15.5469C16.7699 17.5467 17.7347 19.3882 19.1718 20.8258C20.6088 22.2634 22.4499 23.229 24.4496 23.5938H24.4527Z" fill="#285FE2"/>
<path d="M26.2502 2.5C23.2674 2.5029 20.4076 3.68909 18.2984 5.79825C16.1893 7.9074 15.0031 10.7672 15.0002 13.75C15.0013 14.2422 15.0342 14.7339 15.0986 15.2219L4.23766 30.0344C3.88217 30.5152 3.71164 31.1079 3.75726 31.7041C3.80288 32.3003 4.0616 32.8601 4.4861 33.2812L6.71891 35.5141C7.14003 35.9386 7.69988 36.1973 8.29609 36.2429C8.89229 36.2885 9.48499 36.118 9.96579 35.7625L24.7798 24.8984C25.2673 24.9638 25.7584 24.9977 26.2502 25C29.2338 25 32.0953 23.8147 34.2051 21.7049C36.3149 19.5952 37.5002 16.7337 37.5002 13.75C37.5002 10.7663 36.3149 7.90483 34.2051 5.79505C32.0953 3.68526 29.2338 2.5 26.2502 2.5ZM35.0002 13.75C35.0024 15.6388 34.3904 17.477 33.2564 18.9875L21.0142 6.74375C22.3147 5.77248 23.8597 5.18208 25.4764 5.03855C27.0932 4.89502 28.718 5.20402 30.1692 5.93101C31.6204 6.658 32.8408 7.77431 33.694 9.15513C34.5471 10.536 34.9994 12.1269 35.0002 13.75ZM8.48766 33.75L6.25016 31.5125L15.9595 18.2812C17.0973 20.8498 19.1504 22.9029 21.7189 24.0406L8.48766 33.75ZM17.5002 13.75C17.4977 11.8617 18.1097 10.0238 19.2439 8.51406L31.4845 20.7547C30.1842 21.7254 28.6395 22.3154 27.0231 22.4588C25.4067 22.6021 23.7823 22.2932 22.3314 21.5664C20.8806 20.8397 19.6603 19.7238 18.8072 18.3435C17.954 16.9631 17.5015 15.3727 17.5002 13.75ZM17.133 22.8656C17.3672 23.1 17.4988 23.4178 17.4988 23.7492C17.4988 24.0806 17.3672 24.3984 17.133 24.6328L15.883 25.8828C15.7681 26.0038 15.6301 26.1005 15.4772 26.1673C15.3243 26.2341 15.1596 26.2696 14.9928 26.2717C14.8259 26.2739 14.6604 26.2426 14.5058 26.1797C14.3512 26.1169 14.2108 26.0237 14.0929 25.9057C13.9749 25.7878 13.8817 25.6473 13.8189 25.4928C13.756 25.3382 13.7247 25.1727 13.7269 25.0058C13.729 24.839 13.7645 24.6743 13.8313 24.5214C13.8981 24.3685 13.9948 24.2305 14.1158 24.1156L15.3658 22.8656C15.4818 22.7491 15.6197 22.6565 15.7715 22.5934C15.9234 22.5302 16.0862 22.4976 16.2506 22.4974C16.4151 22.4973 16.5779 22.5296 16.7299 22.5925C16.8818 22.6554 17.0199 22.7477 17.1361 22.8641L17.133 22.8656Z" fill="#242839"/>
</svg>
