<svg width="40" height="40" viewBox="0 0 40 40" fill="none" xmlns="http://www.w3.org/2000/svg">
<path opacity="0.2" d="M28.75 23.75L26.4672 34.0219C26.4053 34.2994 26.2507 34.5475 26.0289 34.7254C25.807 34.9032 25.5312 35.0001 25.2469 35H14.7531C14.4688 35.0001 14.193 34.9032 13.9711 34.7254C13.7493 34.5475 13.5947 34.2994 13.5328 34.0219L11.25 23.75H28.75Z" fill="#285FE2"/>
<path d="M31.2499 22.4999H19.2655L19.6327 22.1327L22.767 18.9984C24.033 19.6359 25.4278 19.9758 26.8452 19.9921C28.2718 19.9959 29.6717 19.6055 30.8905 18.864C34.5967 16.6202 36.5827 11.4265 36.203 4.97024C36.1851 4.66443 36.0556 4.37583 35.839 4.15923C35.6224 3.94262 35.3338 3.81309 35.028 3.79524C28.5717 3.41711 23.378 5.40149 21.1327 9.10774C19.6717 11.5218 19.6342 14.4374 20.9983 17.2327L18.7499 19.4812L16.842 17.5734C17.7795 15.503 17.7124 13.3546 16.6249 11.5609C14.9264 8.74992 11.0311 7.24992 6.20767 7.5343C5.9024 7.55249 5.61438 7.68196 5.39814 7.8982C5.18189 8.11445 5.05242 8.40246 5.03423 8.70774C4.74986 13.5312 6.24986 17.4249 9.06236 19.1249C10.0033 19.6995 11.0849 20.0023 12.1874 19.9999C13.1875 19.99 14.1741 19.7668 15.0811 19.3452L16.9827 21.2499L15.7327 22.4999H8.74986C8.41834 22.4999 8.10039 22.6316 7.86597 22.866C7.63155 23.1005 7.49986 23.4184 7.49986 23.7499C7.49986 24.0814 7.63155 24.3994 7.86597 24.6338C8.10039 24.8682 8.41834 24.9999 8.74986 24.9999H10.2483L12.3124 34.2921C12.4328 34.8489 12.7411 35.3474 13.1855 35.7038C13.6298 36.0603 14.1833 36.2531 14.753 36.2499H25.2483C25.8178 36.2525 26.371 36.0595 26.8152 35.7031C27.2595 35.3468 27.5679 34.8486 27.6889 34.2921L29.753 24.9999H31.2499C31.5814 24.9999 31.8993 24.8682 32.1337 24.6338C32.3682 24.3994 32.4999 24.0814 32.4999 23.7499C32.4999 23.4184 32.3682 23.1005 32.1337 22.866C31.8993 22.6316 31.5814 22.4999 31.2499 22.4999ZM23.2811 10.403C24.9155 7.70617 28.7858 6.1843 33.7499 6.25149C33.8139 11.2218 32.2952 15.0921 29.5983 16.7202C27.7999 17.814 25.6295 17.7421 23.4608 16.5359C22.253 14.3749 22.1874 12.2015 23.2811 10.403ZM14.392 16.8921C12.9545 17.6609 11.5311 17.6968 10.3561 16.9859C8.55923 15.8968 7.5233 13.3296 7.49986 9.99992C10.8295 10.0234 13.3983 11.0593 14.4858 12.8562C15.1983 14.0312 15.1561 15.4546 14.392 16.8921ZM25.2483 33.7499H14.753L12.8124 24.9999H27.1874L25.2483 33.7499Z" fill="#242839"/>
</svg>
