<svg width="16" height="16" viewBox="0 0 16 16" fill="none" xmlns="http://www.w3.org/2000/svg">
<path d="M14.6489 13.125C13.792 11.6211 12.4539 10.4492 10.8502 9.79814C11.6477 9.19997 12.2368 8.36603 12.5341 7.41443C12.8313 6.46284 12.8217 5.44184 12.5064 4.49606C12.1911 3.55027 11.5863 2.72766 10.7775 2.14474C9.96876 1.56182 8.99709 1.24814 8.00015 1.24814C7.00321 1.24814 6.03154 1.56182 5.22278 2.14474C4.41401 2.72766 3.80916 3.55027 3.4939 4.49606C3.17864 5.44184 3.16895 6.46284 3.46621 7.41443C3.76347 8.36603 4.3526 9.19997 5.15015 9.79814C3.54635 10.4492 2.2083 11.6211 1.3514 13.125C1.2983 13.2104 1.26291 13.3056 1.24734 13.4049C1.23176 13.5042 1.23631 13.6057 1.26073 13.7032C1.28514 13.8007 1.32891 13.8924 1.38944 13.9726C1.44997 14.0529 1.52603 14.1202 1.61308 14.1705C1.70014 14.2208 1.79642 14.2531 1.8962 14.2654C1.99598 14.2778 2.09722 14.2699 2.19391 14.2424C2.2906 14.2148 2.38076 14.1681 2.45903 14.105C2.5373 14.0419 2.60208 13.9637 2.64952 13.875C3.78202 11.9175 5.78202 10.75 8.00015 10.75C10.2183 10.75 12.2183 11.9181 13.3508 13.875C13.4536 14.0403 13.6167 14.1592 13.8056 14.2065C13.9944 14.2538 14.1943 14.2257 14.3629 14.1283C14.5314 14.0309 14.6555 13.8718 14.7089 13.6846C14.7623 13.4973 14.7408 13.2967 14.6489 13.125ZM4.75015 6.00001C4.75015 5.35722 4.94076 4.72887 5.29787 4.19441C5.65499 3.65995 6.16257 3.24339 6.75643 2.9974C7.35029 2.75142 8.00376 2.68706 8.63419 2.81246C9.26463 2.93786 9.84373 3.2474 10.2982 3.70192C10.7528 4.15644 11.0623 4.73553 11.1877 5.36597C11.3131 5.99641 11.2487 6.64987 11.0028 7.24373C10.7568 7.83759 10.3402 8.34517 9.80575 8.70229C9.27129 9.0594 8.64294 9.25001 8.00015 9.25001C7.1385 9.24902 6.31243 8.90629 5.70315 8.29701C5.09387 7.68774 4.75114 6.86166 4.75015 6.00001Z" fill="#7E83AC"/>
</svg>
