<svg width="40" height="40" viewBox="0 0 40 40" fill="none" xmlns="http://www.w3.org/2000/svg">
<path opacity="0.2" d="M37.5009 20.0001C37.5009 23.3153 36.184 26.4947 33.8398 28.8389C31.4956 31.1831 28.3161 32.5001 25.0009 32.5001H11.2509C10.0102 32.4985 8.78406 32.2332 7.65375 31.7216C6.52345 31.21 5.51486 30.4639 4.69491 29.5328C3.87497 28.6016 3.26241 27.5068 2.89789 26.3209C2.53337 25.1349 2.42523 23.885 2.58063 22.6541C2.73603 21.4232 3.15142 20.2394 3.79925 19.1813C4.44707 18.1231 5.31251 17.2149 6.33815 16.5168C7.36378 15.8186 8.52616 15.3466 9.74814 15.132C10.9701 14.9174 12.2238 14.9651 13.4259 15.2719V15.2876C14.5197 12.6046 16.5116 10.3849 19.061 9.00813C21.6103 7.6313 24.5587 7.18284 27.4021 7.73941C30.2455 8.29599 32.8073 9.82303 34.6494 12.0594C36.4914 14.2958 37.4994 17.1027 37.5009 20.0001Z" fill="#285FE2"/>
<path d="M24.9994 6.25C22.4458 6.25196 19.9431 6.96428 17.7711 8.30728C15.5992 9.65029 13.8437 11.571 12.701 13.8547C11.3415 13.6564 9.95583 13.7404 8.63028 14.1014C7.30473 14.4623 6.06778 15.0926 4.99658 15.9528C3.92538 16.8129 3.04291 17.8846 2.40421 19.1009C1.76551 20.3173 1.38429 21.6522 1.28432 23.0223C1.18436 24.3925 1.36778 25.7686 1.82317 27.0647C2.27856 28.3609 2.99613 29.5493 3.93113 30.5559C4.86614 31.5624 5.99851 32.3655 7.25763 32.9151C8.51675 33.4646 9.87559 33.7488 11.2494 33.75H24.9994C28.6461 33.75 32.1435 32.3013 34.7221 29.7227C37.3008 27.1441 38.7494 23.6467 38.7494 20C38.7494 16.3533 37.3008 12.8559 34.7221 10.2773C32.1435 7.69866 28.6461 6.25 24.9994 6.25ZM24.9994 31.25H11.2494C9.26029 31.25 7.35264 30.4598 5.94611 29.0533C4.53959 27.6468 3.74941 25.7391 3.74941 23.75C3.74941 21.7609 4.53959 19.8532 5.94611 18.4467C7.35264 17.0402 9.26029 16.25 11.2494 16.25C11.4213 16.25 11.5932 16.25 11.7635 16.2672C11.4216 17.482 11.2487 18.738 11.2494 20C11.2494 20.3315 11.3811 20.6495 11.6155 20.8839C11.85 21.1183 12.1679 21.25 12.4994 21.25C12.8309 21.25 13.1489 21.1183 13.3833 20.8839C13.6177 20.6495 13.7494 20.3315 13.7494 20C13.7494 17.775 14.4092 15.5999 15.6454 13.7498C16.8815 11.8998 18.6386 10.4578 20.6942 9.60636C22.7499 8.75487 25.0119 8.53208 27.1942 8.96617C29.3765 9.40025 31.381 10.4717 32.9544 12.045C34.5277 13.6184 35.5992 15.6229 36.0332 17.8052C36.4673 19.9875 36.2445 22.2495 35.3931 24.3052C34.5416 26.3609 33.0996 28.1179 31.2496 29.354C29.3995 30.5902 27.2245 31.25 24.9994 31.25Z" fill="#242839"/>
</svg>
